<svg width="27" height="24" viewBox="0 0 27 24" fill="none" xmlns="http://www.w3.org/2000/svg">
<path id="Combined Shape" fill-rule="evenodd" clip-rule="evenodd" d="M19.1512 0.0437116C20.6761 0.223159 21.9319 0.940951 22.7841 2.0625C23.6811 3.13919 24.1296 4.52991 23.9502 6.05521C23.8156 7.53566 23.0532 8.83666 21.9767 9.68903C20.8555 10.5414 19.4651 10.99 17.9402 10.8554L17.839 10.8388C17.5945 10.7989 17.324 10.7547 17.088 10.676L16.6844 10.5414L16.7741 10.0479C16.8638 9.73391 16.9086 9.41989 16.9535 9.10587L16.9535 9.10583C17.1329 7.67025 16.9086 6.32439 16.3704 5.06825C15.9219 3.9467 15.2043 2.91488 14.2625 2.10736C14.8007 1.43443 15.4734 0.896089 16.2807 0.537193C17.1329 0.0885736 18.1196 -0.0908743 19.1512 0.0437116ZM15.6561 12.6531C15.8634 12.6963 16.1613 12.7571 16.3256 12.7845C16.7741 12.8742 17.2226 12.8742 17.7159 12.8742C18.5233 12.8742 19.3306 12.7845 20.093 12.5602C20.8106 12.3808 21.5282 12.1116 22.1561 11.7527H22.3804C23.6811 11.7527 24.8472 12.2462 25.6545 13.0985C26.5066 13.9509 27 15.0725 27 16.3735V19.8425C27 20.4786 26.4843 20.9942 25.8482 20.9942H21.4691C20.833 20.9942 20.3173 20.4786 20.3173 19.8425V19.6035C20.3173 17.9436 19.5997 16.4183 18.5681 15.2519C17.8502 14.4654 16.1941 13.6528 15.4472 13.3109C15.2518 13.2214 15.1803 12.9776 15.2995 12.7987C15.3774 12.6818 15.5186 12.6244 15.6561 12.6531ZM15.2492 7.67025C15.2492 10.9408 12.5986 13.592 9.3289 13.592C6.05923 13.592 3.40864 10.9408 3.40864 7.67025C3.40864 4.39974 6.05923 1.74847 9.3289 1.74847C12.5986 1.74847 15.2492 4.39974 15.2492 7.67025ZM4.6196 14.7136H4.84385C5.51661 15.1173 6.18937 15.3865 6.95183 15.566C7.71429 15.7903 8.52159 15.88 9.3289 15.88C10.1362 15.88 10.9435 15.7903 11.706 15.566C12.4236 15.3865 13.1412 15.1173 13.7691 14.7136H13.9934C15.294 14.7136 16.4601 15.2519 17.2674 16.1043C18.1196 16.9118 18.6578 18.0782 18.6578 19.3792V21.6964C18.6578 22.9686 17.6265 24 16.3542 24H2.30359C1.03135 24 0 22.9686 0 21.6964V19.3792C0 18.0782 0.538206 16.9118 1.34551 16.1043C2.19767 15.2519 3.36379 14.7136 4.6196 14.7136Z" fill="white"/>
</svg>
