<svg width="158" height="159" viewBox="0 0 158 159" fill="none" xmlns="http://www.w3.org/2000/svg">
<circle cx="2.5" cy="3.25" r="2.5" fill="#3B6AE3"/>
<circle cx="2.5" cy="37.25" r="2.5" fill="#3B6AE3"/>
<circle cx="2.5" cy="71.25" r="2.5" fill="#3B6AE3"/>
<circle cx="2.5" cy="105.25" r="2.5" fill="#3B6AE3"/>
<circle cx="2.5" cy="139.25" r="2.5" fill="#3B6AE3"/>
<circle cx="2.5" cy="20.25" r="2.5" fill="#3B6AE3"/>
<circle cx="2.5" cy="54.25" r="2.5" fill="#3B6AE3"/>
<circle cx="2.5" cy="88.25" r="2.5" fill="#3B6AE3"/>
<circle cx="2.5" cy="122.25" r="2.5" fill="#3B6AE3"/>
<circle cx="2.5" cy="156.25" r="2.5" fill="#3B6AE3"/>
<circle cx="70.5" cy="3.25" r="2.5" fill="#3B6AE3"/>
<circle cx="70.5" cy="37.25" r="2.5" fill="#3B6AE3"/>
<circle cx="70.5" cy="71.25" r="2.5" fill="#3B6AE3"/>
<circle cx="70.5" cy="105.25" r="2.5" fill="#3B6AE3"/>
<circle cx="70.5" cy="139.25" r="2.5" fill="#3B6AE3"/>
<circle cx="70.5" cy="20.25" r="2.5" fill="#3B6AE3"/>
<circle cx="70.5" cy="54.25" r="2.5" fill="#3B6AE3"/>
<circle cx="70.5" cy="88.25" r="2.5" fill="#3B6AE3"/>
<circle cx="70.5" cy="122.25" r="2.5" fill="#3B6AE3"/>
<circle cx="70.5" cy="156.25" r="2.5" fill="#3B6AE3"/>
<circle cx="19.5" cy="3.25" r="2.5" fill="#3B6AE3"/>
<circle cx="19.5" cy="37.25" r="2.5" fill="#3B6AE3"/>
<circle cx="19.5" cy="71.25" r="2.5" fill="#3B6AE3"/>
<circle cx="19.5" cy="105.25" r="2.5" fill="#3B6AE3"/>
<circle cx="19.5" cy="139.25" r="2.5" fill="#3B6AE3"/>
<circle cx="19.5" cy="20.25" r="2.5" fill="#3B6AE3"/>
<circle cx="19.5" cy="54.25" r="2.5" fill="#3B6AE3"/>
<circle cx="19.5" cy="88.25" r="2.5" fill="#3B6AE3"/>
<circle cx="19.5" cy="122.25" r="2.5" fill="#3B6AE3"/>
<circle cx="19.5" cy="156.25" r="2.5" fill="#3B6AE3"/>
<circle cx="87.5" cy="3.25" r="2.5" fill="#3B6AE3"/>
<circle cx="87.5" cy="37.25" r="2.5" fill="#3B6AE3"/>
<circle cx="87.5" cy="71.25" r="2.5" fill="#3B6AE3"/>
<circle cx="87.5" cy="105.25" r="2.5" fill="#3B6AE3"/>
<circle cx="87.5" cy="139.25" r="2.5" fill="#3B6AE3"/>
<circle cx="87.5" cy="20.25" r="2.5" fill="#3B6AE3"/>
<circle cx="87.5" cy="54.25" r="2.5" fill="#3B6AE3"/>
<circle cx="87.5" cy="88.25" r="2.5" fill="#3B6AE3"/>
<circle cx="87.5" cy="122.25" r="2.5" fill="#3B6AE3"/>
<circle cx="87.5" cy="156.25" r="2.5" fill="#3B6AE3"/>
<circle cx="36.5" cy="3.25" r="2.5" fill="#3B6AE3"/>
<circle cx="36.5" cy="37.25" r="2.5" fill="#3B6AE3"/>
<circle cx="36.5" cy="71.25" r="2.5" fill="#3B6AE3"/>
<circle cx="36.5" cy="105.25" r="2.5" fill="#3B6AE3"/>
<circle cx="36.5" cy="139.25" r="2.5" fill="#3B6AE3"/>
<circle cx="36.5" cy="20.25" r="2.5" fill="#3B6AE3"/>
<circle cx="36.5" cy="54.25" r="2.5" fill="#3B6AE3"/>
<circle cx="36.5" cy="88.25" r="2.5" fill="#3B6AE3"/>
<circle cx="36.5" cy="122.25" r="2.5" fill="#3B6AE3"/>
<circle cx="36.5" cy="156.25" r="2.5" fill="#3B6AE3"/>
<circle cx="104.5" cy="3.25" r="2.5" fill="#3B6AE3"/>
<circle cx="104.5" cy="37.25" r="2.5" fill="#3B6AE3"/>
<circle cx="104.5" cy="71.25" r="2.5" fill="#3B6AE3"/>
<circle cx="104.5" cy="105.25" r="2.5" fill="#3B6AE3"/>
<circle cx="104.5" cy="139.25" r="2.5" fill="#3B6AE3"/>
<circle cx="104.5" cy="20.25" r="2.5" fill="#3B6AE3"/>
<circle cx="104.5" cy="54.25" r="2.5" fill="#3B6AE3"/>
<circle cx="104.5" cy="88.25" r="2.5" fill="#3B6AE3"/>
<circle cx="104.5" cy="122.25" r="2.5" fill="#3B6AE3"/>
<circle cx="104.5" cy="156.25" r="2.5" fill="#3B6AE3"/>
<circle cx="138.5" cy="3.25" r="2.5" fill="#3B6AE3"/>
<circle cx="138.5" cy="37.25" r="2.5" fill="#3B6AE3"/>
<circle cx="138.5" cy="71.25" r="2.5" fill="#3B6AE3"/>
<circle cx="138.5" cy="105.25" r="2.5" fill="#3B6AE3"/>
<circle cx="138.5" cy="139.25" r="2.5" fill="#3B6AE3"/>
<circle cx="138.5" cy="20.25" r="2.5" fill="#3B6AE3"/>
<circle cx="138.5" cy="54.25" r="2.5" fill="#3B6AE3"/>
<circle cx="138.5" cy="88.25" r="2.5" fill="#3B6AE3"/>
<circle cx="138.5" cy="122.25" r="2.5" fill="#3B6AE3"/>
<circle cx="138.5" cy="156.25" r="2.5" fill="#3B6AE3"/>
<circle cx="53.5" cy="3.25" r="2.5" fill="#3B6AE3"/>
<circle cx="53.5" cy="37.25" r="2.5" fill="#3B6AE3"/>
<circle cx="53.5" cy="71.25" r="2.5" fill="#3B6AE3"/>
<circle cx="53.5" cy="105.25" r="2.5" fill="#3B6AE3"/>
<circle cx="53.5" cy="139.25" r="2.5" fill="#3B6AE3"/>
<circle cx="53.5" cy="20.25" r="2.5" fill="#3B6AE3"/>
<circle cx="53.5" cy="54.25" r="2.5" fill="#3B6AE3"/>
<circle cx="53.5" cy="88.25" r="2.5" fill="#3B6AE3"/>
<circle cx="53.5" cy="122.25" r="2.5" fill="#3B6AE3"/>
<circle cx="53.5" cy="156.25" r="2.5" fill="#3B6AE3"/>
<circle cx="121.5" cy="3.25" r="2.5" fill="#3B6AE3"/>
<circle cx="121.5" cy="37.25" r="2.5" fill="#3B6AE3"/>
<circle cx="121.5" cy="71.25" r="2.5" fill="#3B6AE3"/>
<circle cx="121.5" cy="105.25" r="2.5" fill="#3B6AE3"/>
<circle cx="121.5" cy="139.25" r="2.5" fill="#3B6AE3"/>
<circle cx="121.5" cy="20.25" r="2.5" fill="#3B6AE3"/>
<circle cx="121.5" cy="54.25" r="2.5" fill="#3B6AE3"/>
<circle cx="121.5" cy="88.25" r="2.5" fill="#3B6AE3"/>
<circle cx="121.5" cy="122.25" r="2.5" fill="#3B6AE3"/>
<circle cx="121.5" cy="156.25" r="2.5" fill="#3B6AE3"/>
<circle cx="155.5" cy="3.25" r="2.5" fill="#3B6AE3"/>
<circle cx="155.5" cy="37.25" r="2.5" fill="#3B6AE3"/>
<circle cx="155.5" cy="71.25" r="2.5" fill="#3B6AE3"/>
<circle cx="155.5" cy="105.25" r="2.5" fill="#3B6AE3"/>
<circle cx="155.5" cy="139.25" r="2.5" fill="#3B6AE3"/>
<circle cx="155.5" cy="20.25" r="2.5" fill="#3B6AE3"/>
<circle cx="155.5" cy="54.25" r="2.5" fill="#3B6AE3"/>
<circle cx="155.5" cy="88.25" r="2.5" fill="#3B6AE3"/>
<circle cx="155.5" cy="122.25" r="2.5" fill="#3B6AE3"/>
<circle cx="155.5" cy="156.25" r="2.5" fill="#3B6AE3"/>
</svg>
